<?xml version="1.0" encoding="utf-8"?>
<!-- Generator: Adobe Illustrator 25.4.1, SVG Export Plug-In . SVG Version: 6.00 Build 0)  -->
<svg version="1.1" id="Layer_1" xmlns="http://www.w3.org/2000/svg" xmlns:xlink="http://www.w3.org/1999/xlink" x="0px" y="0px"
	 viewBox="0 0 685 124" style="enable-background:new 0 0 685 124;" xml:space="preserve">
<style type="text/css">
	.st0{fill:#FFFFFF;}
</style>
<g>
	<g>
		<path class="st0" d="M249,84.1L249,84.1c0.7,2.3,1.2,4.5,1.4,6.6c0.1,0.6,0.1,1.2,0.1,1.7c0,1.7-0.2,3.4-0.6,5.2
			c-0.4,2.4-1.1,4.5-2.1,6.4s-2.3,3.8-3.9,5.6c-0.2,0.2-0.3,0.3-0.5,0.5s-0.3,0.4-0.5,0.6c-0.2,0.2-0.3,0.3-0.5,0.5
			s-0.4,0.3-0.6,0.5c-1.2,1.1-2.4,2-3.7,2.8c-1.2,0.8-2.6,1.4-4.1,2c-1.6,0.6-3.1,1-4.5,1.3c-1.5,0.3-3,0.4-4.6,0.4
			c-5.6,0-14.1,0-25.5,0c0-11.4,0-28.5,0-51.2c4.2,0,8.5,0,12.7,0c4.2,0,8.5,0,12.7,0c1.6,0,3.1,0.1,4.6,0.4c1.5,0.3,3,0.7,4.5,1.3
			c1.5,0.6,2.9,1.3,4.1,2c1.3,0.8,2.5,1.7,3.7,2.8c0.2,0.2,0.4,0.3,0.6,0.5c0.2,0.2,0.3,0.3,0.5,0.5c0.2,0.2,0.3,0.4,0.5,0.6
			s0.3,0.3,0.5,0.5c0.6,0.6,1.1,1.3,1.6,1.9c0.4,0.6,0.9,1.3,1.4,2.1c0.4,0.8,0.8,1.5,1.1,2.2C248.3,82.5,248.6,83.3,249,84.1z
			 M241.9,93.1c0-0.1,0-0.2,0-0.3c0-0.1,0-0.1,0-0.2c0-0.1,0-0.1,0-0.2c0-0.1,0-0.1,0-0.2c0-1.5-0.2-2.9-0.6-4.3
			c-0.4-1.3-0.9-2.6-1.7-3.9c-0.8-1.3-1.7-2.4-2.7-3.4s-2.1-1.9-3.5-2.7c-0.6-0.4-1.3-0.7-2-1c-0.6-0.3-1.3-0.5-2.1-0.7
			c-0.8-0.2-1.5-0.3-2.2-0.4c-0.7-0.1-1.4-0.2-2.2-0.2c-3.8,0-9.4,0-17,0c0,7.6,0,18.9,0,34.1c2.8,0,5.7,0,8.5,0c2.8,0,5.6,0,8.5,0
			c0.8,0,1.5-0.1,2.2-0.2c0.7-0.1,1.4-0.2,2.2-0.4c0.8-0.2,1.5-0.5,2.1-0.7c0.7-0.3,1.4-0.6,2-1c1.3-0.8,2.5-1.7,3.5-2.7
			c1-1,1.9-2.1,2.7-3.4c0.8-1.3,1.3-2.7,1.7-4C241.7,96.1,241.9,94.7,241.9,93.1z"/>
		<path class="st0" d="M263.5,66.9c1.9,0,4.7,0,8.5,0c0,11.4,0,28.5,0,51.2c-1.9,0-4.7,0-8.5,0C263.5,106.7,263.5,89.7,263.5,66.9z"
			/>
		<path class="st0" d="M331.2,113.8c-1.5,1.5-3.1,2.5-4.8,3.2c-1.8,0.8-3.7,1.1-5.7,1.1c-3.5,0-7.1,0-10.6,0c-3.6,0-7.2,0-10.7,0
			c-0.5,0-1.1,0-1.6-0.1c-0.5-0.1-1.1-0.2-1.6-0.3c-0.6-0.1-1.1-0.2-1.6-0.4c-0.5-0.2-1-0.4-1.5-0.6c-0.8-0.4-1.5-0.8-2.2-1.3
			c-0.7-0.5-1.4-1-2-1.6c-0.6-0.6-1.1-1.3-1.6-1.9c-0.5-0.7-0.9-1.5-1.3-2.3c-0.2-0.3-0.3-0.7-0.4-1c-0.2-0.3-0.3-0.7-0.4-1
			c-0.1-0.4-0.2-0.7-0.2-1c-0.1-0.3-0.2-0.7-0.2-1.1c1.5,0,2.9,0,4.4,0c1.5,0,2.9,0,4.4,0c0.2,0.6,0.5,1.2,0.9,1.8
			c0.4,0.5,0.9,0.9,1.5,1.4c0.5,0.4,1.1,0.7,1.7,0.9c0.6,0.2,1.2,0.2,1.9,0.2c3.5,0,7.1,0,10.7,0c3.5,0,7.1,0,10.6,0
			c1.8,0,3.3-0.6,4.5-1.9c1.2-1.2,1.9-2.7,1.9-4.5s-0.6-3.3-1.9-4.5c-1.2-1.2-2.7-1.9-4.5-1.9c-3.5,0-7.1,0-10.6,0
			c-3.6,0-7.2,0-10.7,0c-1.9,0-3.6-0.3-5.2-1c-1.6-0.6-3.1-1.5-4.5-2.7c-1.4-1.2-2.5-2.6-3.4-4.1c-0.8-1.5-1.3-3.2-1.6-5
			c0-0.2,0-0.4-0.1-0.6c0-0.2,0-0.3,0-0.5c0-0.2,0-0.4-0.1-0.6c0-0.2,0-0.3,0-0.6c0-2,0.4-3.9,1.1-5.7c0.7-1.7,1.8-3.3,3.2-4.8
			c1.5-1.5,3.1-2.6,4.8-3.3c1.8-0.8,3.7-1.1,5.7-1.1c3.5,0,7.1,0,10.7,0c3.5,0,7.1,0,10.6,0c0.5,0,1.1,0,1.6,0.1
			c0.5,0.1,1.1,0.2,1.6,0.3c0.6,0.1,1.1,0.2,1.6,0.4c0.5,0.2,1,0.4,1.5,0.6c0.8,0.4,1.5,0.8,2.2,1.3c0.7,0.5,1.4,1,2,1.7
			c0.6,0.6,1.1,1.2,1.6,1.9c0.5,0.6,0.9,1.4,1.3,2.2c0.2,0.4,0.3,0.7,0.4,1c0.2,0.3,0.3,0.7,0.4,1c0.1,0.4,0.2,0.7,0.2,1
			c0.1,0.4,0.2,0.8,0.2,1.1c-1.5,0-2.9,0-4.4,0c-1.5,0-2.9,0-4.4,0c-0.2-0.6-0.5-1.2-0.9-1.7c-0.4-0.5-0.9-1-1.5-1.4
			c-0.5-0.4-1.1-0.7-1.7-0.9c-0.6-0.2-1.2-0.3-1.9-0.3c-3.5,0-7.1,0-10.6,0c-3.6,0-7.2,0-10.7,0c-1.8,0-3.3,0.6-4.5,1.9
			c-1.2,1.3-1.9,2.8-1.9,4.5c0,1.8,0.6,3.3,1.9,4.6c1.2,1.2,2.7,1.9,4.5,1.9c3.5,0,7.1,0,10.7,0c3.5,0,7.1,0,10.6,0
			c1,0,2,0.1,2.8,0.2c0.9,0.2,1.9,0.4,2.8,0.8c0.9,0.4,1.7,0.9,2.5,1.4c0.8,0.5,1.6,1.1,2.3,1.9c0.3,0.3,0.6,0.6,0.9,1
			c0.3,0.3,0.5,0.6,0.8,1c0.3,0.4,0.5,0.8,0.7,1.1c0.2,0.4,0.4,0.8,0.6,1.2c0.2,0.3,0.3,0.6,0.4,1c0.2,0.3,0.3,0.7,0.4,1
			c0.1,0.4,0.2,0.8,0.2,1.1c0.1,0.3,0.2,0.7,0.2,1c0,0.2,0,0.4,0.1,0.6c0,0.2,0,0.4,0,0.6c0,0.2,0,0.3,0.1,0.5c0,0.2,0,0.3,0,0.6
			c0,2-0.4,4-1.1,5.7C333.8,110.7,332.7,112.3,331.2,113.8z"/>
		<path class="st0" d="M399.6,75.6c-4.7,0-11.8,0-21.3,0c0,9.5,0,23.6,0,42.6c-1.9,0-4.7,0-8.5,0c0-9.5,0-23.6,0-42.6
			c-4.7,0-11.8,0-21.3,0c0-1.9,0-4.8,0-8.5c11.3,0,28.4,0,51.1,0C399.6,68.9,399.6,71.8,399.6,75.6z"/>
		<path class="st0" d="M445.4,75.6c4,9.5,10,23.6,18,42.6c-2,0-5.1,0-9.2,0c-1.2-2.8-3-7.1-5.4-12.8c-6.7,0-16.7,0-30,0
			c-1.2,2.8-3,7.1-5.4,12.8c-2,0-5.1,0-9.2,0c4-9.5,10-23.6,18-42.6c0.8-1.9,2-4.7,3.6-8.5c3.5,0,8.9,0,16,0
			c0.6,1.4,1.2,2.8,1.9,4.2C444.2,72.8,444.8,74.2,445.4,75.6z M422.5,96.9c5.1,0,12.6,0,22.7,0c-2-4.7-5-11.8-8.9-21.3
			c-1.1,0-2.7,0-4.8,0c-1.5,3.5-3,7.1-4.5,10.6C425.4,89.8,423.9,93.3,422.5,96.9z"/>
		<path class="st0" d="M527.5,67c0,11.3,0,28.3,0,51c-1.9,0-4.7,0-8.5,0c-7.6-8.5-18.9-21.2-34-38.2c0,8.5,0,21.2,0,38.2
			c-1.9,0-4.7,0-8.5,0c0-11.3,0-28.3,0-51c1.9,0,4.8,0,8.5,0c7.6,8.5,18.9,21.3,34,38.3c0-8.5,0-21.3,0-38.3
			C520.9,67,523.7,67,527.5,67z"/>
		<path class="st0" d="M591.5,75.6c-5.6,0-14.1,0-25.5,0c-0.8,0-1.6,0.1-2.3,0.2c-0.7,0.1-1.4,0.2-2.2,0.4c-0.8,0.2-1.5,0.5-2.1,0.7
			c-0.6,0.3-1.3,0.6-2,1c-1.3,0.8-2.5,1.6-3.5,2.6c-1,1-1.9,2.1-2.7,3.5c-0.8,1.3-1.3,2.6-1.7,3.9c-0.4,1.3-0.6,2.8-0.6,4.3
			c0,0.1,0,0.1,0,0.2c0,0.1,0,0.2,0,0.2c0,0.1,0,0.1,0,0.2c0,0.1,0,0.2,0,0.2c0.1,2.3,0.5,4.4,1.4,6.4c0.8,2,2,3.8,3.7,5.4
			c1.7,1.6,3.5,2.8,5.5,3.6c2,0.8,4.1,1.2,6.4,1.2c4.2,0,8.5,0,12.7,0c4.2,0,8.5,0,12.7,0c0,1.9,0,4.7,0,8.5c-5.6,0-14.1,0-25.5,0
			c-1.7,0-3.2-0.1-4.7-0.4c-1.5-0.3-2.9-0.7-4.4-1.3c-1.6-0.6-3-1.3-4.2-2c-1.3-0.8-2.6-1.7-3.8-2.8c-0.2-0.2-0.3-0.3-0.5-0.5
			c-0.2-0.2-0.3-0.3-0.5-0.5c-0.2-0.2-0.4-0.4-0.5-0.6c-0.2-0.2-0.3-0.3-0.5-0.5c-2.2-2.5-3.8-5.1-4.9-7.9c-1.1-2.8-1.6-5.9-1.6-9.2
			c0-3.3,0.5-6.3,1.6-9.2c1.1-2.8,2.7-5.4,4.9-7.9c0.2-0.2,0.3-0.3,0.5-0.5c0.1-0.2,0.3-0.3,0.5-0.6c0.2-0.2,0.3-0.3,0.5-0.5
			c0.2-0.2,0.3-0.3,0.5-0.5c1.2-1.1,2.5-2,3.8-2.8c1.2-0.8,2.6-1.4,4.1-2c1.6-0.6,3.1-1,4.5-1.3c1.5-0.3,3-0.4,4.7-0.4
			c4.2,0,8.5,0,12.7,0c4.2,0,8.5,0,12.7,0c0,1.5,0,2.9,0,4.3C591.5,72.8,591.5,74.2,591.5,75.6z"/>
		<path class="st0" d="M604.4,66.9c1.9,0,4.7,0,8.5,0c0,11.4,0,28.5,0,51.2c-1.9,0-4.7,0-8.5,0C604.4,106.7,604.4,89.7,604.4,66.9z"
			/>
		<path class="st0" d="M666.6,75.6c4,9.5,10,23.6,18,42.6c-2,0-5.1,0-9.2,0c-1.2-2.8-3-7.1-5.4-12.8c-6.7,0-16.7,0-30,0
			c-1.2,2.8-3,7.1-5.4,12.8c-2,0-5.1,0-9.2,0c4-9.5,10-23.6,18-42.6c0.8-1.9,2-4.7,3.6-8.5c3.5,0,8.9,0,16,0
			c0.6,1.4,1.2,2.8,1.9,4.2C665.5,72.8,666,74.2,666.6,75.6z M643.7,96.9c5.1,0,12.6,0,22.7,0c-2-4.7-5-11.8-8.9-21.3
			c-1.1,0-2.7,0-4.8,0c-1.5,3.5-3,7.1-4.5,10.6C646.6,89.8,645.1,93.3,643.7,96.9z"/>
	</g>
	<g>
		<path class="st0" d="M199.5,17.3c8.5,0,21.3,0,38.2,0c0,0.8,0,1.9,0,3.3c-7.8,0-19.4,0-34.9,0c0,3.1,0,7.9,0,14.2
			c4.9,0,12.3,0,22.2,0c0,0.8,0,1.9,0,3.3c-4.9,0-12.3,0-22.2,0c0,3.1,0,7.9,0,14.2c7.7,0,19.4,0,34.9,0c0,0.8,0,1.9,0,3.3
			c-8.5,0-21.3,0-38.2,0c0-3.9,0-9.7,0-17.5c0-0.7,0-1.8,0-3.3C199.5,30.9,199.5,25.1,199.5,17.3z"/>
		<path class="st0" d="M280.4,23.7c1.2,1.3,2.2,2.7,2.9,4.2c0.7,1.5,1.3,3.1,1.6,4.8c0.2,1.3,0.4,2.6,0.4,3.9c0,0.4,0,0.8,0,1.3
			c-0.1,1.6-0.5,3.3-1.1,4.9c-0.7,2-1.6,3.7-2.7,5.2c-1.2,1.5-2.6,2.8-4.2,4c-1.7,1.2-3.4,2.1-5.2,2.7c-1.8,0.6-3.7,0.8-5.8,0.8
			c-4.2,0-10.5,0-19,0c0-8.5,0-21.2,0-38.1c3.2,0,6.3,0,9.5,0c3.2,0,6.3,0,9.5,0c1.2,0,2.4,0.1,3.5,0.3c1.1,0.2,2.2,0.5,3.3,1
			c1.1,0.4,2.2,0.9,3.1,1.5c0.9,0.6,1.8,1.3,2.8,2.1c0.1,0.1,0.2,0.2,0.4,0.4c0.1,0.1,0.2,0.2,0.4,0.4c0.2,0.1,0.3,0.2,0.4,0.4
			C280.2,23.4,280.3,23.5,280.4,23.7z M281.1,41.7L281.1,41.7c0.3-0.9,0.6-1.7,0.7-2.6c0.2-0.8,0.2-1.7,0.2-2.7c0-1-0.1-1.9-0.2-2.7
			c-0.2-0.8-0.4-1.7-0.7-2.6c-0.6-1.6-1.4-3-2.3-4.3c-0.9-1.2-2.1-2.3-3.5-3.3c-1.4-1-2.8-1.7-4.3-2.2c-1.5-0.4-3.1-0.7-4.8-0.7
			c-3.5,0-8.7,0-15.7,0c0,7,0,17.6,0,31.6c2.6,0,5.3,0,7.9,0c2.6,0,5.2,0,7.8,0c1,0,2-0.1,2.9-0.2c0.9-0.2,1.8-0.4,2.7-0.8
			c1-0.4,1.8-0.8,2.6-1.3c0.8-0.5,1.6-1.1,2.3-1.7c0.1-0.1,0.2-0.2,0.4-0.3c0.1-0.1,0.2-0.2,0.3-0.3c0.1-0.1,0.2-0.2,0.3-0.3
			c0.1-0.1,0.2-0.2,0.3-0.3c0.4-0.4,0.7-0.8,1-1.2c0.3-0.4,0.6-0.8,0.8-1.3c0.3-0.5,0.5-0.9,0.7-1.4
			C280.7,42.7,280.9,42.2,281.1,41.7z"/>
		<path class="st0" d="M300,49.1c-0.8-0.9-1.5-1.9-2.1-2.8c-0.6-0.9-1.1-2-1.6-3.1c-0.4-1.1-0.8-2.2-1-3.4c-0.2-1.1-0.3-2.2-0.3-3.4
			c0-4.3,0-10.6,0-19.1c0.8,0,1.9,0,3.3,0c0,3.2,0,6.3,0,9.5c0,3.2,0,6.4,0,9.6c0,1,0.1,1.9,0.2,2.8c0.2,0.9,0.5,1.9,0.8,2.8
			c0.4,0.9,0.8,1.8,1.3,2.6c0.4,0.8,1,1.5,1.7,2.3c1.5,1.6,3.2,2.9,5,3.8c1.8,0.9,3.8,1.4,6,1.5c2.2,0.1,4.3-0.2,6.2-0.8
			c1.9-0.7,3.7-1.7,5.3-3.2c0.1-0.1,0.2-0.2,0.4-0.3c0.1-0.1,0.2-0.2,0.3-0.3c0.1-0.1,0.2-0.2,0.3-0.4c0.1-0.1,0.2-0.2,0.3-0.3
			c0.7-0.8,1.3-1.5,1.7-2.3c0.5-0.8,0.9-1.7,1.3-2.6c0.4-1,0.6-1.9,0.8-2.8c0.2-0.9,0.3-1.8,0.3-2.8c0-4.3,0-10.6,0-19.1
			c0.7,0,1.8,0,3.3,0c0,3.2,0,6.3,0,9.5c0,3.2,0,6.4,0,9.6c0,1.2-0.1,2.3-0.3,3.4c-0.2,1.1-0.5,2.2-1,3.4c-0.4,1.2-0.9,2.2-1.5,3.1
			c-0.6,1-1.3,1.9-2.1,2.8c-0.1,0.1-0.2,0.2-0.4,0.4s-0.2,0.3-0.4,0.4c-0.1,0.1-0.3,0.2-0.4,0.4c-0.1,0.1-0.2,0.2-0.4,0.4
			c-1.8,1.6-3.8,2.9-6,3.7c-2.1,0.8-4.4,1.2-6.9,1.2c-2.5,0-4.8-0.4-6.9-1.2c-2.1-0.8-4.1-2-6-3.7c-0.2-0.1-0.3-0.2-0.4-0.4
			c-0.1-0.1-0.2-0.2-0.4-0.4c-0.1-0.2-0.2-0.3-0.4-0.4S300.2,49.2,300,49.1z"/>
		<path class="st0" d="M355.7,18.3c0.5-0.2,1-0.3,1.6-0.5c0.5-0.1,1-0.2,1.6-0.3c0.6-0.1,1.1-0.2,1.6-0.2c0.5,0,1.1-0.1,1.6-0.1
			c4.2,0,10.5,0,18.9,0c0,0.7,0,1.8,0,3.3c-3.2,0-6.3,0-9.5,0c-3.1,0-6.3,0-9.5,0c-1,0-1.9,0.1-2.8,0.2c-0.9,0.2-1.8,0.4-2.8,0.8
			c-0.9,0.4-1.8,0.8-2.6,1.2c-0.8,0.5-1.5,1.1-2.3,1.7c-0.1,0.1-0.2,0.2-0.3,0.3c-0.1,0.1-0.2,0.2-0.3,0.3c-0.1,0.1-0.2,0.2-0.3,0.3
			c-0.1,0.1-0.2,0.2-0.3,0.4c-1.4,1.5-2.4,3.1-3,4.9c-0.7,1.7-1,3.6-1,5.7c0,2,0.3,3.9,1,5.7c0.6,1.7,1.6,3.4,3,4.9
			c0.1,0.1,0.2,0.2,0.3,0.3c0.1,0.1,0.2,0.2,0.3,0.3c0.1,0.1,0.2,0.2,0.3,0.3c0.1,0.1,0.2,0.2,0.3,0.3c0.8,0.7,1.5,1.3,2.3,1.7
			c0.8,0.5,1.7,0.9,2.6,1.3c1,0.4,1.9,0.6,2.8,0.8c0.9,0.2,1.8,0.2,2.8,0.2c4.2,0,10.5,0,18.9,0c0,0.7,0,1.8,0,3.3
			c-3.2,0-6.3,0-9.5,0c-3.1,0-6.3,0-9.5,0c-1.2,0-2.3-0.1-3.4-0.3c-1.1-0.2-2.2-0.5-3.3-0.9c-1.2-0.4-2.2-1-3.1-1.6
			c-0.9-0.6-1.8-1.2-2.8-2c-0.1-0.1-0.2-0.2-0.4-0.4c-0.1-0.1-0.3-0.2-0.4-0.4c-0.1-0.2-0.2-0.3-0.4-0.4c-0.1-0.1-0.2-0.2-0.4-0.4
			c-1.6-1.8-2.8-3.8-3.6-5.9c-0.8-2.1-1.2-4.4-1.2-6.8c0-2.4,0.4-4.7,1.2-6.8c0.8-2.1,2-4.1,3.6-5.9c0.1-0.2,0.2-0.3,0.4-0.4
			s0.2-0.2,0.4-0.4s0.3-0.2,0.4-0.4c0.1-0.1,0.2-0.2,0.4-0.4c0.5-0.4,1-0.8,1.4-1.2c0.4-0.3,0.9-0.7,1.5-1c0.6-0.3,1.1-0.6,1.7-0.8
			C354.5,18.8,355.1,18.6,355.7,18.3z"/>
		<path class="st0" d="M428.9,41.1c0.3,0.7,0.8,1.8,1.4,3.3c1,2.5,2.6,6.1,4.7,11.1c-0.8,0-2,0-3.6,0c-1-2.4-2.6-6.1-4.7-11.1
			c-6.2,0-15.4,0-27.8,0c-1,2.5-2.6,6.1-4.7,11.1c-0.8,0-2,0-3.6,0c1-2.4,2.6-6.1,4.7-11.1c0.3-0.7,0.8-1.8,1.4-3.3
			c2.2-5.3,5.6-13.2,10.1-23.8c2.6,0,6.6,0,12,0c1.7,4,3.4,8,5,11.9C425.5,33.2,427.2,37.1,428.9,41.1z M400.4,41.1
			c5.5,0,13.9,0,25,0c-1.9-4.5-4.8-11.4-8.7-20.5c-1.7,0-4.2,0-7.7,0c-1.4,3.4-2.9,6.8-4.3,10.2C403.3,34.3,401.8,37.7,400.4,41.1z"
			/>
		<path class="st0" d="M451.3,18.3c0.5-0.2,1-0.3,1.6-0.5c0.5-0.1,1-0.2,1.6-0.3c0.6-0.1,1.1-0.2,1.6-0.2c0.5,0,1.1-0.1,1.6-0.1
			c4.2,0,10.5,0,18.9,0c0,0.7,0,1.8,0,3.3c-3.2,0-6.3,0-9.5,0c-3.1,0-6.3,0-9.5,0c-1,0-1.9,0.1-2.8,0.2c-0.9,0.2-1.8,0.4-2.8,0.8
			c-0.9,0.4-1.8,0.8-2.6,1.2c-0.8,0.5-1.5,1.1-2.3,1.7c-0.1,0.1-0.2,0.2-0.3,0.3c-0.1,0.1-0.2,0.2-0.3,0.3c-0.1,0.1-0.2,0.2-0.3,0.3
			c-0.1,0.1-0.2,0.2-0.3,0.4c-1.4,1.5-2.4,3.1-3,4.9c-0.7,1.7-1,3.6-1,5.7c0,2,0.3,3.9,1,5.7c0.6,1.7,1.6,3.4,3,4.9
			c0.1,0.1,0.2,0.2,0.3,0.3c0.1,0.1,0.2,0.2,0.3,0.3c0.1,0.1,0.2,0.2,0.3,0.3c0.1,0.1,0.2,0.2,0.3,0.3c0.8,0.7,1.5,1.3,2.3,1.7
			c0.8,0.5,1.7,0.9,2.6,1.3c1,0.4,1.9,0.6,2.8,0.8c0.9,0.2,1.8,0.2,2.8,0.2c4.2,0,10.5,0,18.9,0c0,0.7,0,1.8,0,3.3
			c-3.2,0-6.3,0-9.5,0c-3.1,0-6.3,0-9.5,0c-1.2,0-2.3-0.1-3.4-0.3c-1.1-0.2-2.2-0.5-3.3-0.9c-1.2-0.4-2.2-1-3.1-1.6
			c-0.9-0.6-1.8-1.2-2.8-2c-0.1-0.1-0.2-0.2-0.4-0.4c-0.1-0.1-0.3-0.2-0.4-0.4c-0.1-0.2-0.2-0.3-0.4-0.4c-0.1-0.1-0.2-0.2-0.4-0.4
			c-1.6-1.8-2.8-3.8-3.6-5.9c-0.8-2.1-1.2-4.4-1.2-6.8c0-2.4,0.4-4.7,1.2-6.8c0.8-2.1,2-4.1,3.6-5.9c0.1-0.2,0.2-0.3,0.4-0.4
			s0.2-0.2,0.4-0.4s0.3-0.2,0.4-0.4c0.1-0.1,0.2-0.2,0.4-0.4c0.5-0.4,1-0.8,1.4-1.2c0.4-0.3,0.9-0.7,1.5-1c0.6-0.3,1.1-0.6,1.7-0.8
			C450.1,18.8,450.7,18.6,451.3,18.3z"/>
		<path class="st0" d="M486.4,17.3c0.7,0,1.8,0,3.3,0c0,8.5,0,21.3,0,38.2c-0.8,0-1.9,0-3.3,0C486.4,47,486.4,34.2,486.4,17.3z"/>
		<path class="st0" d="M539.4,23.6c1.6,1.8,2.8,3.8,3.6,5.9c0.8,2.1,1.2,4.4,1.2,6.9c0,2.5-0.4,4.7-1.2,6.8c-0.8,2.1-2,4.1-3.6,5.9
			c-0.1,0.1-0.2,0.2-0.4,0.4c-0.1,0.1-0.3,0.3-0.4,0.4c-0.1,0.1-0.2,0.2-0.4,0.4c-0.1,0.1-0.2,0.2-0.4,0.4c-0.9,0.8-1.8,1.5-2.8,2
			c-1,0.6-2,1.1-3.1,1.6c-1.2,0.4-2.3,0.7-3.4,0.9c-1.1,0.2-2.2,0.3-3.4,0.3c-1.1,0-2.1,0-3.2,0c-1.1,0-2.1,0-3.2,0
			c-1.2,0-2.4-0.1-3.5-0.3c-1.1-0.2-2.2-0.5-3.3-0.9c-1.2-0.4-2.2-1-3.1-1.6c-1-0.6-1.9-1.2-2.8-2c-0.2-0.1-0.3-0.2-0.4-0.4
			c-0.1-0.1-0.2-0.2-0.4-0.4c-0.1-0.2-0.2-0.3-0.4-0.4s-0.2-0.2-0.4-0.4c-1.6-1.8-2.9-3.8-3.7-5.9c-0.8-2.1-1.2-4.4-1.2-6.8
			c0-2.4,0.4-4.7,1.2-6.9c0.8-2.1,2-4.1,3.7-5.9c0.1-0.1,0.2-0.2,0.4-0.4c0.1-0.1,0.2-0.2,0.4-0.4c0.1-0.2,0.2-0.3,0.4-0.4
			c0.1-0.1,0.3-0.2,0.4-0.4c0.9-0.8,1.8-1.5,2.8-2.1c0.9-0.6,2-1.1,3.1-1.5c1.1-0.4,2.2-0.8,3.3-1c1.1-0.2,2.2-0.3,3.5-0.3
			c1,0,2.1,0,3.2,0c1,0,2.1,0,3.2,0c1.2,0,2.3,0.1,3.4,0.3c1.1,0.2,2.2,0.5,3.4,1c1.1,0.4,2.2,0.9,3.1,1.5c0.9,0.6,1.8,1.3,2.8,2.1
			c0.1,0.1,0.2,0.2,0.4,0.4c0.1,0.1,0.2,0.2,0.4,0.4c0.2,0.1,0.3,0.2,0.4,0.4C539.1,23.4,539.2,23.5,539.4,23.6z M540,41.7
			c0.2-0.4,0.3-0.9,0.4-1.3c0.1-0.4,0.2-0.8,0.3-1.3s0.1-0.9,0.2-1.3c0-0.4,0.1-0.9,0.1-1.3c0-1-0.1-2-0.2-2.9
			c-0.2-0.9-0.4-1.8-0.8-2.8c-0.4-0.9-0.8-1.8-1.3-2.6c-0.5-0.8-1.1-1.5-1.7-2.3c-0.1-0.1-0.2-0.2-0.3-0.3c-0.1-0.1-0.2-0.2-0.3-0.4
			c-0.1-0.1-0.2-0.2-0.3-0.3c-0.1-0.1-0.2-0.2-0.3-0.3c-0.8-0.7-1.5-1.3-2.3-1.7c-0.8-0.4-1.6-0.8-2.6-1.2c-0.9-0.4-1.8-0.6-2.8-0.8
			c-0.9-0.2-1.8-0.2-2.8-0.2c-1.1,0-2.1,0-3.2,0c-1.1,0-2.1,0-3.2,0c-1,0-2,0.1-2.9,0.2c-0.9,0.2-1.8,0.5-2.8,0.8
			c-1,0.4-1.8,0.8-2.6,1.3c-0.8,0.5-1.6,1.1-2.3,1.7c-0.1,0.1-0.2,0.2-0.3,0.3c-0.1,0.1-0.2,0.2-0.3,0.3c-0.1,0.1-0.2,0.2-0.3,0.3
			c-0.1,0.1-0.2,0.2-0.3,0.3c-0.4,0.4-0.7,0.8-1,1.2c-0.3,0.4-0.6,0.8-0.8,1.3c-0.3,0.5-0.5,0.9-0.7,1.3c-0.2,0.4-0.4,0.9-0.6,1.4
			c-0.5,1.4-0.8,2.8-0.8,4.2c-0.1,1.3,0,2.7,0.2,4.2c0.3,1.5,0.7,2.8,1.3,4c0.6,1.2,1.4,2.3,2.4,3.4c0.1,0.1,0.2,0.2,0.3,0.4
			c0.1,0.1,0.2,0.2,0.3,0.3c0.1,0.1,0.2,0.2,0.4,0.3c0.1,0.1,0.2,0.2,0.3,0.3c0.8,0.7,1.5,1.3,2.3,1.7c0.8,0.5,1.7,0.9,2.6,1.3
			c1,0.4,1.9,0.6,2.8,0.8c0.9,0.2,1.9,0.2,2.9,0.2c1,0,2.1,0,3.2,0c1,0,2.1,0,3.2,0c1,0,1.9-0.1,2.8-0.2c0.9-0.2,1.8-0.4,2.8-0.8
			c1-0.4,1.8-0.8,2.6-1.3c0.8-0.5,1.6-1.1,2.3-1.7c0.1-0.1,0.2-0.2,0.4-0.3c0.1-0.1,0.2-0.2,0.3-0.3c0.1-0.1,0.2-0.2,0.3-0.3
			c0.1-0.1,0.2-0.2,0.3-0.3c0.4-0.4,0.7-0.8,1-1.2c0.3-0.4,0.6-0.8,0.8-1.3c0.3-0.4,0.5-0.9,0.7-1.3C539.6,42.7,539.8,42.2,540,41.7
			z"/>
		<path class="st0" d="M588.5,17.3c0.7,0,1.8,0,3.3,0c0,8.5,0,21.3,0,38.2c-1,0-2.4,0-4.2,0c-6.8-7.6-17.1-19.1-30.7-34.3
			c0,7.6,0,19.1,0,34.3c-0.7,0-1.8,0-3.3,0c0-8.5,0-21.3,0-38.2c1,0,2.4,0,4.2,0c6.8,7.6,17.1,19.1,30.7,34.4
			C588.5,44,588.5,32.6,588.5,17.3z"/>
		<path class="st0" d="M668.9,41.1c0.3,0.7,0.8,1.8,1.4,3.3c1,2.5,2.6,6.1,4.7,11.1c-0.8,0-2,0-3.6,0c-1-2.4-2.6-6.1-4.7-11.1
			c-6.2,0-15.4,0-27.8,0c-1,2.5-2.6,6.1-4.7,11.1c-0.8,0-2,0-3.6,0c1-2.4,2.6-6.1,4.7-11.1c0.3-0.7,0.8-1.8,1.4-3.3
			c2.2-5.3,5.6-13.2,10.1-23.8c2.6,0,6.6,0,12,0c1.7,4,3.4,8,5,11.9C665.5,33.2,667.2,37.1,668.9,41.1z M640.3,41.1
			c5.5,0,13.9,0,25,0c-1.9-4.5-4.8-11.4-8.7-20.5c-1.7,0-4.2,0-7.7,0c-1.4,3.4-2.9,6.8-4.3,10.2C643.2,34.3,641.8,37.7,640.3,41.1z"
			/>
	</g>
	<polygon class="st0" points="520.7,13.3 525.3,13.3 532.7,1.3 528.7,1.3 	"/>
	<g>
		<path id="XMLID_20_" class="st0" d="M85.1,51.9c-2.9,2.9-2.9,7.7,0,10.6c2.9,2.9,7.7,2.9,10.6,0c2.9-2.9,2.9-7.7,0-10.6
			C92.8,48.9,88,48.9,85.1,51.9z"/>
		<path id="XMLID_19_" class="st0" d="M90.4,34c-6.2,0-12,2.4-16.4,6.8c-1.7,1.7-1.7,4.5,0,6.2c1.7,1.7,4.5,1.7,6.2,0
			c2.7-2.7,6.3-4.2,10.2-4.2c3.9,0,7.5,1.5,10.2,4.2c0.9,0.9,2,1.3,3.1,1.3c1.1,0,2.3-0.4,3.1-1.3c1.7-1.7,1.7-4.5,0-6.2
			C102.4,36.4,96.6,34,90.4,34z"/>
		<path id="XMLID_18_" class="st0" d="M90.4,19.5c-10.1,0-19.6,3.9-26.7,11.1c-1.7,1.7-1.7,4.5,0,6.2c1.7,1.7,4.5,1.7,6.2,0
			c5.5-5.5,12.7-8.5,20.4-8.5c7.7,0,15,3,20.4,8.5c0.9,0.9,2,1.3,3.1,1.3c1.1,0,2.3-0.4,3.1-1.3c1.7-1.7,1.7-4.5,0-6.2
			C110,23.4,100.5,19.5,90.4,19.5z"/>
		<path id="XMLID_17_" class="st0" d="M127.4,20.2c-9.9-9.9-23-15.3-37-15.3s-27.1,5.4-37,15.3c-1.7,1.7-1.7,4.5,0,6.2
			c0.9,0.9,2,1.3,3.1,1.3c1.1,0,2.3-0.4,3.1-1.3c8.2-8.2,19.1-12.7,30.7-12.7s22.5,4.5,30.7,12.7c1.7,1.7,4.5,1.7,6.2,0
			C129.1,24.7,129.1,21.9,127.4,20.2z"/>
	</g>
	<g>
		<path class="st0" d="M20,36.2v9l-8.9,2.5v10l-9.4,2.1v59.6c0,0,17.5-8.6,41.1-8.6s35.6,12,35.6,12s-9.4-17.3-34.5-17.3
			s-37.1,5.8-37.1,5.8V64.2l4.7-1v43.4c0,0,12.6-5.8,26.2-5.8s32.4,5.8,46.6,19.9c0,0-18.8-35.1-68-22l-0.5-47.1l4.7-1l-0.5,45
			c0,0,31.9-17.3,67,19.4c0,0-20.4-37.7-61.7-26.7V40.7c0,0,18-11.2,46.8,11.2C71.8,51.9,50.3,25.3,20,36.2z"/>
		<path class="st0" d="M158.3,36.2v9l8.9,2.5v10l9.4,2.1v59.6c0,0-17.5-8.6-41.1-8.6s-35.6,12-35.6,12s9.4-17.3,34.5-17.3
			s37.1,5.8,37.1,5.8V64.2l-4.7-1v43.4c0,0-12.6-5.8-26.2-5.8s-32.4,5.8-46.6,19.9c0,0,18.8-35.1,68-22l0.5-47.1l-4.7-1l0.5,45
			c0,0-31.9-17.3-67,19.4c0,0,20.4-37.7,61.7-26.7V40.7c0,0-18-11.2-46.8,11.2C106.5,51.9,128,25.3,158.3,36.2z"/>
	</g>
</g>
</svg>
