<?xml version="1.0" encoding="utf-8"?>
<!-- Generator: Adobe Illustrator 25.4.1, SVG Export Plug-In . SVG Version: 6.00 Build 0)  -->
<svg version="1.1" id="Capa_1" xmlns="http://www.w3.org/2000/svg" xmlns:xlink="http://www.w3.org/1999/xlink" x="0px" y="0px"
	 viewBox="0 0 600 600" style="enable-background:new 0 0 600 600;" xml:space="preserve">
<style type="text/css">
	.st0{fill:#FFFFFF;}
	.st1{enable-background:new    ;}
</style>
<g>
	<path class="st0" d="M131.2,246.8c9.99,0,18.68-5.44,23.35-13.51h30.98c7.18,0,13-5.82,13-13v-0.93c0-7.18-5.82-13-13-13h-30.98
		c-4.66-8.07-13.36-13.51-23.35-13.51c-14.9,0-26.97,12.08-26.97,26.97c0,4.11,0.94,7.98,2.59,11.47L79.6,273.76
		c-0.75-0.06-1.5-0.11-2.26-0.11c-14.9,0-26.97,12.08-26.97,26.97c0,14.9,12.08,26.97,26.97,26.97c0.76,0,1.52-0.05,2.26-0.11
		l27.21,42.46c-1.64,3.48-2.59,7.36-2.59,11.47c0,14.9,12.08,26.97,26.97,26.97c9.99,0,18.68-5.44,23.35-13.51h30.98
		c7.18,0,13-5.82,13-13v-0.93c0-7.18-5.82-13-13-13h-30.98c-4.66-8.07-13.36-13.51-23.35-13.51c-0.76,0-1.52,0.05-2.26,0.11
		l-27.21-42.46c1.64-3.48,2.59-7.36,2.59-11.47c0-4.11-0.94-7.98-2.59-11.47l27.21-42.46C129.68,246.75,130.43,246.8,131.2,246.8z"
		/>
	<path class="st0" d="M238.91,246.8c9.99,0,18.68-5.44,23.35-13.51h30.98c7.18,0,13-5.82,13-13v-0.93c0-7.18-5.82-13-13-13h-30.98
		c-4.66-8.07-13.36-13.51-23.35-13.51c-14.9,0-26.97,12.08-26.97,26.97c0,4.11,0.94,7.98,2.59,11.47l-27.21,42.46
		c-0.75-0.06-1.5-0.11-2.26-0.11c-14.9,0-26.97,12.08-26.97,26.97c0,14.9,12.08,26.97,26.97,26.97c0.76,0,1.52-0.05,2.26-0.11
		l27.21,42.46c-1.64,3.48-2.59,7.36-2.59,11.47c0,14.9,12.08,26.97,26.97,26.97c9.99,0,18.68-5.44,23.35-13.51h30.98
		c7.18,0,13-5.82,13-13v-0.93c0-7.18-5.82-13-13-13h-30.98c-4.66-8.07-13.36-13.51-23.35-13.51c-0.76,0-1.52,0.05-2.26,0.11
		l-27.21-42.46c1.64-3.48,2.59-7.36,2.59-11.47c0-4.11-0.94-7.98-2.59-11.47l27.21-42.46C237.4,246.75,238.15,246.8,238.91,246.8z"
		/>
	<g class="st1">
		<path class="st0" d="M341.32,338.89c-2.15-1.15-3.83-2.75-5.06-4.8c-1.23-2.05-1.84-4.36-1.84-6.94s0.61-4.89,1.84-6.94
			c1.23-2.05,2.91-3.65,5.06-4.8c2.15-1.15,4.56-1.73,7.24-1.73c2.26,0,4.3,0.4,6.12,1.19c1.83,0.79,3.35,1.94,4.6,3.42l-3.87,3.57
			c-1.76-2.03-3.95-3.05-6.55-3.05c-1.61,0-3.05,0.35-4.32,1.06c-1.27,0.71-2.25,1.69-2.96,2.96c-0.71,1.27-1.06,2.7-1.06,4.32
			c0,1.61,0.35,3.05,1.06,4.32c0.7,1.27,1.69,2.25,2.96,2.96c1.27,0.71,2.71,1.06,4.32,1.06c2.61,0,4.79-1.03,6.55-3.09l3.87,3.57
			c-1.24,1.51-2.78,2.67-4.61,3.46c-1.84,0.79-3.88,1.19-6.14,1.19C345.87,340.62,343.47,340.04,341.32,338.89z"/>
		<path class="st0" d="M368.08,338.87c-2.17-1.17-3.87-2.77-5.1-4.82c-1.23-2.05-1.84-4.35-1.84-6.9s0.61-4.86,1.84-6.9
			c1.23-2.05,2.93-3.65,5.1-4.82c2.17-1.17,4.61-1.75,7.31-1.75c2.7,0,5.14,0.58,7.29,1.75c2.16,1.17,3.86,2.77,5.1,4.82
			c1.24,2.05,1.86,4.35,1.86,6.9s-0.62,4.86-1.86,6.9c-1.24,2.05-2.94,3.65-5.1,4.82c-2.16,1.17-4.59,1.75-7.29,1.75
			C372.68,340.62,370.25,340.03,368.08,338.87z M379.56,334.42c1.24-0.71,2.22-1.69,2.92-2.96c0.7-1.27,1.06-2.7,1.06-4.32
			c0-1.61-0.35-3.05-1.06-4.32c-0.71-1.27-1.68-2.25-2.92-2.96c-1.24-0.71-2.63-1.06-4.17-1.06s-2.93,0.35-4.17,1.06
			c-1.24,0.71-2.22,1.69-2.92,2.96c-0.71,1.27-1.06,2.7-1.06,4.32c0,1.61,0.35,3.05,1.06,4.32c0.7,1.27,1.68,2.25,2.92,2.96
			c1.24,0.71,2.63,1.06,4.17,1.06S378.32,335.13,379.56,334.42z M377.03,306.64h6.25l-6.73,5.36H372L377.03,306.64z"/>
		<path class="st0" d="M417.88,340.17l-0.04-15.63l-7.67,12.88h-2.72l-7.63-12.54v15.29h-5.65v-26.05h4.98l9.75,16.19l9.6-16.19
			h4.95l0.08,26.05H417.88z"/>
		<path class="st0" d="M447,315.28c1.7,0.77,3.01,1.86,3.93,3.27c0.92,1.41,1.38,3.09,1.38,5.02c0,1.91-0.46,3.58-1.38,5
			c-0.92,1.43-2.23,2.52-3.93,3.28c-1.7,0.76-3.7,1.13-6.01,1.13h-5.25v7.18h-6.03v-26.05h11.27
			C443.3,314.12,445.3,314.51,447,315.28z M444.79,326.91c0.94-0.78,1.42-1.89,1.42-3.33c0-1.46-0.47-2.59-1.42-3.37
			c-0.94-0.78-2.32-1.17-4.13-1.17h-4.91v9.04h4.91C442.47,328.08,443.85,327.69,444.79,326.91z"/>
		<path class="st0" d="M459.36,337.53c-2.07-2.06-3.11-5-3.11-8.82v-14.59h6.03v14.36c0,4.66,1.93,7,5.8,7
			c1.89,0,3.32-0.56,4.32-1.69c0.99-1.13,1.49-2.9,1.49-5.3v-14.36h5.95v14.59c0,3.82-1.04,6.76-3.11,8.82
			c-2.07,2.06-4.97,3.09-8.69,3.09C464.32,340.62,461.43,339.59,459.36,337.53z"/>
		<path class="st0" d="M490.74,319.04h-8.34v-4.91h22.7v4.91h-8.33v21.14h-6.03V319.04z"/>
		<path class="st0" d="M513.28,338.87c-2.17-1.17-3.87-2.77-5.1-4.82c-1.23-2.05-1.84-4.35-1.84-6.9s0.61-4.86,1.84-6.9
			c1.23-2.05,2.93-3.65,5.1-4.82c2.17-1.17,4.61-1.75,7.31-1.75c2.7,0,5.14,0.58,7.29,1.75c2.16,1.17,3.86,2.77,5.1,4.82
			c1.24,2.05,1.86,4.35,1.86,6.9s-0.62,4.86-1.86,6.9c-1.24,2.05-2.94,3.65-5.1,4.82c-2.16,1.17-4.59,1.75-7.29,1.75
			C517.88,340.62,515.45,340.03,513.28,338.87z M524.75,334.42c1.24-0.71,2.22-1.69,2.92-2.96c0.71-1.27,1.06-2.7,1.06-4.32
			c0-1.61-0.35-3.05-1.06-4.32c-0.71-1.27-1.68-2.25-2.92-2.96c-1.24-0.71-2.63-1.06-4.17-1.06c-1.54,0-2.93,0.35-4.17,1.06
			c-1.24,0.71-2.22,1.69-2.92,2.96c-0.71,1.27-1.06,2.7-1.06,4.32c0,1.61,0.35,3.05,1.06,4.32c0.7,1.27,1.68,2.25,2.92,2.96
			c1.24,0.71,2.63,1.06,4.17,1.06C522.13,335.48,523.51,335.13,524.75,334.42z"/>
	</g>
	<g class="st1">
		<path class="st0" d="M327.57,285.59c-2.15-1.15-3.83-2.75-5.06-4.8c-1.23-2.05-1.84-4.36-1.84-6.94c0-2.58,0.61-4.89,1.84-6.94
			c1.23-2.05,2.91-3.65,5.06-4.8c2.15-1.15,4.56-1.73,7.24-1.73c2.26,0,4.3,0.4,6.12,1.19c1.82,0.79,3.35,1.94,4.59,3.42l-3.87,3.57
			c-1.76-2.03-3.94-3.05-6.55-3.05c-1.61,0-3.05,0.35-4.32,1.06c-1.27,0.71-2.25,1.69-2.96,2.96c-0.7,1.27-1.06,2.7-1.06,4.32
			c0,1.61,0.35,3.05,1.06,4.32c0.71,1.27,1.69,2.25,2.96,2.96c1.27,0.71,2.7,1.06,4.32,1.06c2.61,0,4.79-1.03,6.55-3.09l3.87,3.57
			c-1.24,1.51-2.78,2.67-4.61,3.46c-1.84,0.79-3.88,1.19-6.14,1.19C332.12,287.32,329.72,286.74,327.57,285.59z"/>
		<path class="st0" d="M369.75,282.04v4.84h-20.17v-26.05h19.68v4.84h-13.69v5.66h12.09v4.69h-12.09v6.03H369.75z"/>
		<path class="st0" d="M398.44,260.83v26.05h-4.95l-12.98-15.81v15.81h-5.95v-26.05h4.99l12.95,15.81v-15.81H398.44z"/>
		<path class="st0" d="M410.02,265.74h-8.34v-4.91h22.7v4.91h-8.33v21.14h-6.03V265.74z"/>
		<path class="st0" d="M444.21,286.87l-5.02-7.26h-0.3h-5.24v7.26h-6.03v-26.05h11.27c2.31,0,4.31,0.38,6.01,1.15
			c1.7,0.77,3.01,1.86,3.93,3.27c0.92,1.41,1.38,3.09,1.38,5.02c0,1.94-0.47,3.6-1.4,5c-0.93,1.4-2.25,2.47-3.96,3.22l5.84,8.37
			H444.21z M442.69,266.91c-0.94-0.78-2.32-1.17-4.13-1.17h-4.91v9.08h4.91c1.81,0,3.19-0.4,4.13-1.19
			c0.94-0.79,1.41-1.91,1.41-3.35C444.1,268.82,443.63,267.69,442.69,266.91z"/>
		<path class="st0" d="M460.27,285.57c-2.17-1.17-3.87-2.77-5.1-4.82c-1.23-2.05-1.84-4.35-1.84-6.9c0-2.56,0.61-4.86,1.84-6.9
			c1.23-2.05,2.93-3.65,5.1-4.82s4.61-1.75,7.31-1.75s5.14,0.58,7.29,1.75c2.16,1.17,3.86,2.77,5.1,4.82
			c1.24,2.05,1.86,4.35,1.86,6.9c0,2.56-0.62,4.86-1.86,6.9c-1.24,2.05-2.94,3.65-5.1,4.82c-2.16,1.17-4.59,1.75-7.29,1.75
			S462.44,286.74,460.27,285.57z M471.75,281.13c1.24-0.71,2.21-1.69,2.92-2.96c0.71-1.27,1.06-2.7,1.06-4.32
			c0-1.61-0.35-3.05-1.06-4.32c-0.71-1.27-1.68-2.25-2.92-2.96c-1.24-0.71-2.63-1.06-4.17-1.06s-2.93,0.35-4.17,1.06
			c-1.24,0.71-2.22,1.69-2.92,2.96c-0.7,1.27-1.06,2.7-1.06,4.32c0,1.61,0.35,3.05,1.06,4.32c0.71,1.27,1.68,2.25,2.92,2.96
			c1.24,0.71,2.63,1.06,4.17,1.06S470.51,281.83,471.75,281.13z"/>
		<path class="st0" d="M496.9,260.83h11.83c2.83,0,5.33,0.54,7.5,1.62c2.17,1.08,3.86,2.6,5.06,4.56c1.2,1.96,1.8,4.24,1.8,6.85
			c0,2.61-0.6,4.89-1.8,6.85c-1.2,1.96-2.89,3.48-5.06,4.56c-2.17,1.08-4.67,1.62-7.5,1.62H496.9V260.83z M508.44,281.93
			c2.61,0,4.68-0.73,6.23-2.18c1.55-1.45,2.32-3.42,2.32-5.9c0-2.48-0.77-4.45-2.32-5.9c-1.55-1.45-3.63-2.18-6.23-2.18h-5.51v16.15
			H508.44z"/>
		<path class="st0" d="M547.81,282.04v4.84h-20.17v-26.05h19.68v4.84h-13.69v5.66h12.09v4.69h-12.09v6.03H547.81z"/>
	</g>
</g>
</svg>
